<?xml version="1.0"?>
<svg xmlns="http://www.w3.org/2000/svg" xmlns:xlink="http://www.w3.org/1999/xlink" xmlns:svgjs="http://svgjs.com/svgjs" version="1.1" width="512" height="512" x="0" y="0" viewBox="0 0 510 510" style="enable-background:new 0 0 512 512" xml:space="preserve" class=""><g><g xmlns="http://www.w3.org/2000/svg"><path d="m405 43.63v422.74c0 15.81-12.82 28.63-28.63 28.63h-121.37l-26.241-255.458 26.241-224.542h121.37c15.81 0 28.63 12.82 28.63 28.63z" fill="#c8d2dd" data-original="#b3d9ff" style="" class=""/><path d="m255 15v480h-121.37c-15.81 0-28.63-12.82-28.63-28.63v-422.74c0-15.81 12.82-28.63 28.63-28.63z" fill="#ffffff" data-original="#e6f7ff" style="" class=""/><path d="m300 420v30h-45l-10.251-15 10.251-15z" fill="#ff884d" data-original="#ff884d" style="" class=""/><path d="m210 420h45v30h-45z" fill="#ffccb2" data-original="#ffc34d" style="" class=""/><path d="m345 225c0 75-90 140-90 140l-16.004-57.178 16.004-52.822c16.57 0 30-13.43 30-30s-13.43-30-30-30l-11.151-28.327 11.151-31.673c49.71 0 90 40.29 90 90z" fill="#fb5707" data-original="#e62e2e" style="" class=""/><path d="m420 43.63v422.74c0 24.06-19.57 43.63-43.63 43.63h-121.37l-10.251-15 10.251-15h121.37c7.51 0 13.63-6.12 13.63-13.63v-422.74c0-7.51-6.12-13.63-13.63-13.63h-38.87l-17.17 34.34c-3.27 6.53-9.95 10.66-17.25 10.66h-48.08l-16.004-46.267 16.004-28.733h121.37c24.06 0 43.63 19.57 43.63 43.63z" fill="#030316" data-original="#0a0a33" style="" class=""/><path d="m133.63 30h38.87l17.17 34.34c3.27 6.53 9.95 10.66 17.25 10.66h48.08v-75h-121.37c-24.06 0-43.63 19.57-43.63 43.63v422.74c0 24.06 19.57 43.63 43.63 43.63h121.37v-30h-121.37c-7.51 0-13.63-6.12-13.63-13.63v-422.74c0-7.51 6.12-13.63 13.63-13.63z" fill="#050a22" data-original="#283366" style="" class=""/><path d="m255 195v-60c-49.71 0-90 40.29-90 90 0 75 90 140 90 140v-110c-16.57 0-30-13.43-30-30s13.43-30 30-30z" fill="#ff8f59" data-original="#ff5533" style="" class=""/></g></g></svg>
