<?xml version="1.0" encoding="iso-8859-1"?>
<!-- Generator: Adobe Illustrator 19.0.0, SVG Export Plug-In . SVG Version: 6.00 Build 0)  -->
<svg version="1.1" id="Capa_1" xmlns="http://www.w3.org/2000/svg" xmlns:xlink="http://www.w3.org/1999/xlink" x="0px" y="0px"
	 viewBox="0 0 511.998 511.998" style="enable-background:new 0 0 511.998 511.998;" xml:space="preserve">
<g>
	<g>
		<path d="M255.999,40.593c-61.764,0-112.01,50.248-112.01,112.01c0,26.514,9.438,52.237,26.578,72.433
			c1.928,2.272,4.73,3.53,7.625,3.53c0.877,0,1.762-0.116,2.633-0.354c20.119-5.495,43.32-8.281,68.957-8.281
			c2.016,0,4.029,0.018,6.049,0.051c0.111,0.003,0.225,0.003,0.336,0c2.016-0.034,4.033-0.051,6.049-0.051
			c25.637,0,48.836,2.786,68.951,8.281c3.744,1.023,7.744-0.214,10.26-3.175c17.142-20.196,26.582-45.92,26.582-72.434
			C368.01,90.84,317.762,40.593,255.999,40.593z M330.004,207.268c-20.262-4.871-43.027-7.337-67.787-7.337
			c-2.07,0-4.145,0.018-6.217,0.051c-2.074-0.034-4.145-0.051-6.217-0.051c-24.762,0-47.527,2.466-67.791,7.337
			c-11.648-15.763-18.002-34.947-18.002-54.665c0-50.734,41.275-92.01,92.01-92.01c50.735,0,92.01,41.276,92.01,92.01
			C348.01,172.321,341.654,191.505,330.004,207.268z"/>
	</g>
</g>
<g>
	<g>
		<path d="M454.139,376.275c-4.723-65.661-27.611-113.982-68.076-143.813c14.777-23.981,22.539-51.384,22.539-79.859
			C408.602,68.458,340.145,0,255.999,0c-84.146,0-152.605,68.458-152.605,152.603c0,28.476,7.764,55.878,22.541,79.859
			c-40.467,29.831-63.354,78.152-68.076,143.813c-2.73,37.98,6.248,68.375,26.689,90.338c16.17,17.375,38.955,29.387,69.658,36.722
			c24.396,5.829,54.07,8.663,90.713,8.663c3.584,0,7.313-0.027,11.08-0.08c3.77,0.053,7.496,0.08,11.08,0.08
			c36.639,0,66.31-2.834,90.709-8.664c30.701-7.336,53.486-19.349,69.658-36.724C447.889,444.646,456.869,414.253,454.139,376.275z
			 M412.807,452.984c-24.771,26.616-71.078,39.013-145.727,39.014c-3.535,0-7.215-0.027-10.938-0.08
			c-0.049,0-0.096-0.001-0.143-0.001c-0.049,0-0.096,0.001-0.143,0.001c-3.723,0.053-7.402,0.08-10.938,0.08
			c-74.654,0-120.961-12.396-145.73-39.01c-16.736-17.984-23.73-42.607-21.381-75.278c4.56-63.419,27.193-108.552,67.271-134.145
			c2.309-1.474,3.912-3.83,4.436-6.519c0.521-2.688-0.08-5.474-1.668-7.706c-15.996-22.493-24.453-49.028-24.453-76.738
			C123.395,79.485,182.88,20,255.999,20c73.117,0,132.602,59.485,132.602,132.603c0,27.709-8.455,54.245-24.451,76.738
			c-1.586,2.232-2.189,5.017-1.666,7.705c0.523,2.689,2.125,5.044,4.434,6.519c40.076,25.593,62.711,70.727,67.272,134.145
			C436.536,410.378,429.543,435,412.807,452.984z"/>
	</g>
</g>
<g>
	<g>
		<path d="M406.41,345.332c-0.096-0.391-0.199-0.783-0.303-1.175l-0.078-0.3c-1.402-5.342-6.873-8.538-12.211-7.135
			c-5.342,1.401-8.537,6.868-7.135,12.21l0.09,0.34c0.07,0.265,0.141,0.53,0.205,0.793c1.113,4.571,5.203,7.636,9.707,7.636
			c0.783,0,1.58-0.093,2.375-0.287C404.424,356.107,407.716,350.698,406.41,345.332z"/>
	</g>
</g>
<g>
	<g>
		<path d="M412.333,383.51c-0.397-5.51-5.196-9.657-10.692-9.259c-5.508,0.396-9.652,5.182-9.258,10.69
			c1.344,18.7-1.801,31.76-9.611,39.925c-6.781,7.087-18.363,12.646-34.424,16.522c-5.369,1.296-8.67,6.698-7.375,12.067
			c1.105,4.581,5.199,7.657,9.713,7.657c0.777,0,1.566-0.091,2.354-0.281c19.846-4.789,34.711-12.237,44.184-22.138
			C409.161,426.214,414.105,408.164,412.333,383.51z"/>
	</g>
</g>
<g>
	<g>
		<path d="M329.547,338.339h-34.338c-5.523,0-10,4.477-10,10s4.477,10,10,10h22.732c-3.754,10.391-13.49,14.34-22.732,14.34
			c-13.42,0-24.338-13.594-24.338-30.303c0-13.683,5.897-24.284,16.18-29.085c9.744-4.551,21.42-2.67,30.469,4.908
			c4.233,3.544,10.541,2.988,14.088-1.247c3.545-4.234,2.986-10.541-1.248-14.087c-15.068-12.621-34.908-15.57-51.77-7.696
			c-17.357,8.104-27.719,25.752-27.719,47.208c0,27.737,19.889,50.303,44.338,50.303c26.105,0,44.338-18.233,44.338-44.34
			C339.547,342.816,335.07,338.339,329.547,338.339z"/>
	</g>
</g>
<g>
	<g>
		<path d="M239.774,377.7l-24.888-43.343l21.74-26.397c3.512-4.263,2.9-10.565-1.361-14.076c-4.264-3.51-10.566-2.901-14.076,1.362
			l-27.854,33.822l0.461-28.035c0.09-5.522-4.313-10.072-9.834-10.163c-5.572-0.089-10.072,4.313-10.164,9.834l-0.936,56.795
			c0,0.009,0,0.019,0,0.028l-0.412,24.988c-0.09,5.522,4.313,10.072,9.834,10.163c0.057,0.001,0.113,0.001,0.168,0.001
			c5.447,0,9.906-4.37,9.996-9.835l0.357-21.676l8.492-10.312l21.133,36.803c1.848,3.22,5.217,5.022,8.682,5.022
			c1.688,0,3.4-0.428,4.969-1.33C240.87,388.601,242.524,382.489,239.774,377.7z"/>
	</g>
</g>
<g>
</g>
<g>
</g>
<g>
</g>
<g>
</g>
<g>
</g>
<g>
</g>
<g>
</g>
<g>
</g>
<g>
</g>
<g>
</g>
<g>
</g>
<g>
</g>
<g>
</g>
<g>
</g>
<g>
</g>
</svg>
